<svg width="18" height="45" viewBox="0 0 18 45" fill="none" xmlns="http://www.w3.org/2000/svg">
<path d="M17.0567 0L0 0L0 44.12H17.0567V0Z" fill="#617485"/>
<path d="M15.214 7.07031H1.95703L1.95703 25.2863H15.214V7.07031Z" fill="black"/>
<path d="M3.75 23.6924L3.75 12.0391H13.2767V23.6924H3.75Z" fill="#455063"/>
<path d="M13.2767 8.35938H3.75V10.3834H13.2767V8.35938Z" fill="#128587"/>
<path d="M6.47778 0.59375L4.08984 0.59375V2.68051H6.47778V0.59375Z" fill="#00FF26"/>
<path d="M9.54028 0.59375L7.15234 0.59375V2.68051H9.54028V0.59375Z" fill="#BCC2CD"/>
<path d="M12.6262 0.59375L10.2383 0.59375V2.68051H12.6262V0.59375Z" fill="#BCC2CD"/>
<path d="M2.73047 0V3.87513L14.329 3.79595V0" stroke="black" stroke-width="0.3"/>
<path d="M8.51688 28.6328L9.6986 30.4215H7.33516L8.51688 28.6328Z" fill="black"/>
<path d="M8.51688 35.7578L9.6986 33.9692H7.33516L8.51688 35.7578Z" fill="black"/>
<path d="M4.4375 32.2002L6.4843 33.2329L6.4843 31.1676L4.4375 32.2002Z" fill="black"/>
<path d="M12.6172 32.2002L10.5704 33.2329L10.5704 31.1676L12.6172 32.2002Z" fill="black"/>
<path d="M6.81892 28.3047V30.3914H4.08984V33.6706H6.81892V36.0555H10.2303V33.6706H12.9593V30.3914H10.2303V28.3047H6.81892Z" stroke="white" stroke-width="0.2"/>
<path d="M4.08984 38.7656V40.8524H6.47778" stroke="white" stroke-width="0.2"/>
<path d="M12.9688 38.7656V40.8524H10.5808" stroke="#00FF26" stroke-width="0.2"/>
<path d="M4.08984 13.4112V12.2188H12.9593V13.4112H4.08984Z" fill="#00FF26" stroke="#00FF26" stroke-width="0.2"/>
</svg>
